<mxfile host="65bd71144e">
    <diagram id="Sr89QmnRuElkf7226DeY" name="Page-1">
        <mxGraphModel dx="1092" dy="799" grid="1" gridSize="10" guides="1" tooltips="1" connect="1" arrows="1" fold="1" page="1" pageScale="1" pageWidth="850" pageHeight="1100" math="0" shadow="0">
            <root>
                <mxCell id="0"/>
                <mxCell id="1" parent="0"/>
                <mxCell id="2" value="Filter Context" style="text;html=1;strokeColor=none;fillColor=none;align=left;verticalAlign=middle;whiteSpace=wrap;rounded=0;fontSize=17;" parent="1" vertex="1">
                    <mxGeometry x="40" y="50" width="240" height="30" as="geometry"/>
                </mxCell>
                <mxCell id="5" value="IFilterValueInfo" style="swimlane;fontStyle=0;childLayout=stackLayout;horizontal=1;startSize=26;fillColor=none;horizontalStack=0;resizeParent=1;resizeParentMax=0;resizeLast=0;collapsible=1;marginBottom=0;fontSize=17;" parent="1" vertex="1">
                    <mxGeometry x="825" y="198" width="140" height="52" as="geometry"/>
                </mxCell>
                <mxCell id="26" style="edgeStyle=none;html=1;exitX=0.5;exitY=0;exitDx=0;exitDy=0;fontSize=17;strokeWidth=3;rounded=0;" parent="1" source="9" edge="1">
                    <mxGeometry relative="1" as="geometry">
                        <mxPoint x="920" y="250" as="targetPoint"/>
                        <Array as="points">
                            <mxPoint x="1115" y="290"/>
                            <mxPoint x="920" y="290"/>
                        </Array>
                    </mxGeometry>
                </mxCell>
                <mxCell id="30" style="edgeStyle=none;html=1;entryX=1;entryY=0.5;entryDx=0;entryDy=0;fontSize=17;exitX=1;exitY=0.5;exitDx=0;exitDy=0;endArrow=none;endFill=0;startArrow=diamondThin;startFill=0;sourcePerimeterSpacing=0;startSize=22;" parent="1" source="9" target="5" edge="1">
                    <mxGeometry relative="1" as="geometry">
                        <mxPoint x="1140" y="310" as="sourcePoint"/>
                        <Array as="points">
                            <mxPoint x="1330" y="346"/>
                            <mxPoint x="1330" y="224"/>
                            <mxPoint x="1140" y="224"/>
                            <mxPoint x="1090" y="224"/>
                        </Array>
                    </mxGeometry>
                </mxCell>
                <mxCell id="32" value="0..*" style="edgeLabel;html=1;align=center;verticalAlign=middle;resizable=0;points=[];fontSize=17;" parent="30" vertex="1" connectable="0">
                    <mxGeometry x="0.918" y="1" relative="1" as="geometry">
                        <mxPoint y="-15" as="offset"/>
                    </mxGeometry>
                </mxCell>
                <mxCell id="9" value="IFilterValueCollection" style="swimlane;fontStyle=0;childLayout=stackLayout;horizontal=1;startSize=26;fillColor=none;horizontalStack=0;resizeParent=1;resizeParentMax=0;resizeLast=0;collapsible=1;marginBottom=0;fontSize=17;" parent="1" vertex="1">
                    <mxGeometry x="1000" y="320" width="230" height="52" as="geometry"/>
                </mxCell>
                <mxCell id="25" style="edgeStyle=none;html=1;exitX=0.5;exitY=0;exitDx=0;exitDy=0;entryX=0.5;entryY=1;entryDx=0;entryDy=0;fontSize=17;strokeWidth=3;rounded=0;" parent="1" source="10" target="5" edge="1">
                    <mxGeometry relative="1" as="geometry">
                        <Array as="points">
                            <mxPoint x="800" y="290"/>
                            <mxPoint x="895" y="290"/>
                        </Array>
                    </mxGeometry>
                </mxCell>
                <mxCell id="10" value="IFilterValue" style="swimlane;fontStyle=0;childLayout=stackLayout;horizontal=1;startSize=26;fillColor=none;horizontalStack=0;resizeParent=1;resizeParentMax=0;resizeLast=0;collapsible=1;marginBottom=0;fontSize=17;" parent="1" vertex="1">
                    <mxGeometry x="640" y="320" width="320" height="104" as="geometry"/>
                </mxCell>
                <mxCell id="17" value="ParseValue() : object?" style="text;strokeColor=none;fillColor=none;align=left;verticalAlign=top;spacingLeft=4;spacingRight=4;overflow=hidden;rotatable=0;points=[[0,0.5],[1,0.5]];portConstraint=eastwest;fontSize=17;" parent="10" vertex="1">
                    <mxGeometry y="26" width="320" height="26" as="geometry"/>
                </mxCell>
                <mxCell id="18" value="GetOperations(): IFilterOperationField[]" style="text;strokeColor=none;fillColor=none;align=left;verticalAlign=top;spacingLeft=4;spacingRight=4;overflow=hidden;rotatable=0;points=[[0,0.5],[1,0.5]];portConstraint=eastwest;fontSize=17;" parent="10" vertex="1">
                    <mxGeometry y="52" width="320" height="26" as="geometry"/>
                </mxCell>
                <mxCell id="19" value="GetFields(): IFilterField[]" style="text;strokeColor=none;fillColor=none;align=left;verticalAlign=top;spacingLeft=4;spacingRight=4;overflow=hidden;rotatable=0;points=[[0,0.5],[1,0.5]];portConstraint=eastwest;fontSize=17;" parent="10" vertex="1">
                    <mxGeometry y="78" width="320" height="26" as="geometry"/>
                </mxCell>
                <mxCell id="12" value="IFilterOperationField" style="swimlane;fontStyle=0;childLayout=stackLayout;horizontal=1;startSize=26;fillColor=none;horizontalStack=0;resizeParent=1;resizeParentMax=0;resizeLast=0;collapsible=1;marginBottom=0;fontSize=17;" parent="1" vertex="1">
                    <mxGeometry x="60" y="130" width="270" height="80" as="geometry"/>
                </mxCell>
                <mxCell id="20" value="Operation:FilterOperationField" style="text;strokeColor=none;fillColor=none;align=left;verticalAlign=top;spacingLeft=4;spacingRight=4;overflow=hidden;rotatable=0;points=[[0,0.5],[1,0.5]];portConstraint=eastwest;fontSize=17;" parent="12" vertex="1">
                    <mxGeometry y="26" width="270" height="26" as="geometry"/>
                </mxCell>
                <mxCell id="22" value="Value: IFilterValueInfo?" style="text;strokeColor=none;fillColor=none;align=left;verticalAlign=top;spacingLeft=4;spacingRight=4;overflow=hidden;rotatable=0;points=[[0,0.5],[1,0.5]];portConstraint=eastwest;fontSize=17;" parent="12" vertex="1">
                    <mxGeometry y="52" width="270" height="28" as="geometry"/>
                </mxCell>
                <mxCell id="13" value="IFilterField" style="swimlane;fontStyle=0;childLayout=stackLayout;horizontal=1;startSize=26;fillColor=none;horizontalStack=0;resizeParent=1;resizeParentMax=0;resizeLast=0;collapsible=1;marginBottom=0;fontSize=17;" parent="1" vertex="1">
                    <mxGeometry x="80" y="290" width="230" height="90" as="geometry"/>
                </mxCell>
                <mxCell id="21" value="Field: FilterField" style="text;strokeColor=none;fillColor=none;align=left;verticalAlign=top;spacingLeft=4;spacingRight=4;overflow=hidden;rotatable=0;points=[[0,0.5],[1,0.5]];portConstraint=eastwest;fontSize=17;" parent="13" vertex="1">
                    <mxGeometry y="26" width="230" height="26" as="geometry"/>
                </mxCell>
                <mxCell id="23" value="Value: IFilterValueInfo?" style="text;strokeColor=none;fillColor=none;align=left;verticalAlign=top;spacingLeft=4;spacingRight=4;overflow=hidden;rotatable=0;points=[[0,0.5],[1,0.5]];portConstraint=eastwest;fontSize=17;" parent="13" vertex="1">
                    <mxGeometry y="52" width="230" height="38" as="geometry"/>
                </mxCell>
                <mxCell id="24" style="edgeStyle=none;html=1;entryX=0;entryY=0.25;entryDx=0;entryDy=0;fontSize=17;exitX=1;exitY=0.5;exitDx=0;exitDy=0;dashed=1;" parent="1" source="22" target="5" edge="1">
                    <mxGeometry relative="1" as="geometry">
                        <mxPoint x="460" y="237" as="sourcePoint"/>
                        <Array as="points">
                            <mxPoint x="540" y="196"/>
                            <mxPoint x="540" y="211"/>
                        </Array>
                    </mxGeometry>
                </mxCell>
                <mxCell id="27" style="edgeStyle=none;html=1;exitX=1;exitY=0.5;exitDx=0;exitDy=0;fontSize=17;dashed=1;" parent="1" source="23" edge="1">
                    <mxGeometry relative="1" as="geometry">
                        <mxPoint x="820" y="210" as="targetPoint"/>
                        <Array as="points">
                            <mxPoint x="540" y="361"/>
                            <mxPoint x="540" y="210"/>
                        </Array>
                    </mxGeometry>
                </mxCell>
                <mxCell id="28" style="edgeStyle=none;html=1;exitX=0;exitY=0.5;exitDx=0;exitDy=0;fontSize=17;dashed=1;entryX=0;entryY=0.25;entryDx=0;entryDy=0;" parent="1" source="18" target="12" edge="1">
                    <mxGeometry relative="1" as="geometry">
                        <mxPoint x="40" y="100" as="targetPoint"/>
                        <mxPoint x="320" y="371" as="sourcePoint"/>
                        <Array as="points">
                            <mxPoint x="330" y="385"/>
                            <mxPoint x="330" y="410"/>
                            <mxPoint x="20" y="410"/>
                            <mxPoint x="20" y="150"/>
                        </Array>
                    </mxGeometry>
                </mxCell>
                <mxCell id="29" style="edgeStyle=none;html=1;exitX=0;exitY=0.5;exitDx=0;exitDy=0;entryX=-0.013;entryY=0.178;entryDx=0;entryDy=0;entryPerimeter=0;dashed=1;fontSize=17;" parent="1" source="19" target="13" edge="1">
                    <mxGeometry relative="1" as="geometry">
                        <Array as="points">
                            <mxPoint x="440" y="411"/>
                            <mxPoint x="440" y="440"/>
                            <mxPoint x="50" y="440"/>
                            <mxPoint x="50" y="306"/>
                        </Array>
                    </mxGeometry>
                </mxCell>
            </root>
        </mxGraphModel>
    </diagram>
</mxfile>
